<?xml version="1.0" encoding="UTF-8" standalone="no"?>
<!DOCTYPE svg PUBLIC "-//W3C//DTD SVG 1.1//EN" "http://www.w3.org/Graphics/SVG/1.1/DTD/svg11.dtd">
<svg width="100%" height="100%" viewBox="0 0 185 176" version="1.1" xmlns="http://www.w3.org/2000/svg" xmlns:xlink="http://www.w3.org/1999/xlink" xml:space="preserve" xmlns:serif="http://www.serif.com/" style="fill-rule:evenodd;clip-rule:evenodd;stroke-linejoin:round;stroke-miterlimit:2;">
    <g id="Artboard1" transform="matrix(0.965704,0,0,0.814103,7.33341,17.2722)">
        <rect x="-7.594" y="-21.216" width="191.227" height="215.389" style="fill:none;"/>
        <g transform="matrix(1.03551,0,0,1.22835,-216.533,-67.5116)">
            <ellipse cx="294.071" cy="125.457" rx="90.856" ry="86.823" style="fill:rgb(0,96,150);"/>
        </g>
        <g transform="matrix(0.658502,0,0,0.781128,4.16422,15.7841)">
            <g>
                <clipPath id="_clip1">
                    <rect x="-8.389" y="-18.324" width="260.646" height="223.496"/>
                </clipPath>
                <g clip-path="url(#_clip1)">
                    <g id="Capa_2" transform="matrix(1,0,0,1,0.611406,0.675944)">
                        <path d="M231.47,139.66C229.73,141.05 228.12,142.36 226.35,143.55C173.97,178.89 83.28,176.94 32.22,139.55C-15.07,104.8 -9.58,49.15 43.91,24.66C54.18,19.93 65.5,17.32 76.34,13.75L77.54,16.41L70.39,19.22C55.67,25.29 42.77,34 33.45,46.94C15.24,72.26 17,99.38 38.88,122.2C62.78,147 93.46,157.86 127.06,161C161.39,164.17 193.84,157.77 223.24,139C225.522,137.966 227.934,137.249 230.41,136.87L231.47,139.66Z" style="fill:rgb(217,123,73);fill-rule:nonzero;"/>
                        <path d="M75.07,124.78L75.07,43.94L80.39,43.94L133.31,104.37L133.31,43.94L143.46,43.94L143.46,124.78L138.28,124.78L85.22,64.37L85.22,124.78L75.07,124.78ZM167.79,124.78L167.79,43.94L178.08,43.94L178.08,75.88L226.2,75.88L226.2,43.94L236.32,43.94L236.32,124.78L226.2,124.78L226.2,85.18L178.08,85.18L178.08,124.78L167.79,124.78ZM346.37,53.23L321.52,53.23L321.52,115.48L346.37,115.48C356.37,115.48 364.32,112.68 370.07,107.12C375.82,101.56 378.7,94 378.7,84.44C378.7,75.06 375.773,67.52 369.92,61.82C364.067,56.12 356.217,53.257 346.37,53.23ZM346.37,43.94C359.203,43.94 369.537,47.7 377.37,55.22C385.2,62.73 389.15,72.51 389.15,84.59C389.15,96.67 385.29,106.5 377.57,113.81C369.85,121.12 359.44,124.81 346.35,124.81L311.35,124.81L311.35,43.94L346.37,43.94ZM405.63,124.78L405.63,62.08L415.63,62.08L415.63,124.78L405.63,124.78ZM480.2,100.49L480.2,91.49L506.2,91.49L506.2,110.37C502.663,115.65 497.753,119.868 492,122.57C485.601,125.468 478.633,126.894 471.61,126.74C459.983,126.74 450.473,123.63 443.08,117.41C435.926,111.664 431.826,102.914 431.99,93.74C431.81,84.54 435.915,75.761 443.09,70C450.523,63.733 460.013,60.597 471.56,60.59C478.23,60.453 484.854,61.724 491,64.32C496.549,66.731 501.392,70.517 505.07,75.32L497.49,80.7C494.618,77.122 490.889,74.325 486.65,72.57C481.913,70.539 476.804,69.517 471.65,69.57C463.023,69.57 455.953,71.837 450.44,76.37C445.23,80.552 442.193,86.884 442.193,93.565C442.193,100.246 445.23,106.578 450.44,110.76C455.93,115.29 462.99,117.56 471.68,117.56C476.826,117.612 481.929,116.619 486.68,114.64C491.29,112.64 494.52,110.22 496.32,107.19L496.32,100.47L480.2,100.49ZM524.4,124.78L524.4,62.08L534.4,62.08L534.4,124.78L524.4,124.78ZM571.15,124.78L571.15,70.92L544.53,70.92L544.53,62.25L607.63,62.25L607.63,70.92L581,70.92L581,124.78L571.15,124.78ZM622.81,100.63L647.45,100.63L635.22,76.63L622.81,100.63ZM599.94,124.78L610.37,124.78L618.52,108.88L651.83,108.88L660.01,124.78L670.58,124.78L638.22,62.25L632,62.25L599.94,124.78ZM679.94,124.78L679.94,62.25L689.78,62.25L689.78,115.8L736.66,115.8L736.66,124.8L679.94,124.78Z" style="fill:rgb(241,234,188);fill-rule:nonzero;"/>
                    </g>
                </g>
            </g>
        </g>
    </g>
</svg>
